REM DIRINDEX 1\5,1\2\6,1\2\7,1\3\8,1\3\9,1\4\10,1\4\11,1\4\12
REM DIRNAME folder01,folder02,folder03,folder04,folder05,folder06,folder07,folder08,folder09,folder10,folder11,folder12
TITLE ""
FILE "EJE_DB3000_5th_3B_16.mp3" MP3
  TRACK 01 AUDIO
    TITLE "0:"
    INDEX 01 00:00:00
  TRACK 02 AUDIO
    TITLE "10:cjc026_08790"
    INDEX 01 00:00:05
  TRACK 03 AUDIO
    TITLE "0:"
    INDEX 01 00:00:70
  TRACK 04 AUDIO
    TITLE "11:cjc026_08791"
    INDEX 01 00:01:22
  TRACK 05 AUDIO
    TITLE "0:"
    INDEX 01 00:02:24
  TRACK 06 AUDIO
    TITLE "12:cjc026_08792"
    INDEX 01 00:02:51
  TRACK 07 AUDIO
    TITLE "0:"
    INDEX 01 00:03:41
  TRACK 08 AUDIO
    TITLE "10:cjc026_08793"
    INDEX 01 00:03:68
  TRACK 09 AUDIO
    TITLE "0:"
    INDEX 01 00:04:60
  TRACK 10 AUDIO
    TITLE "11:cjc026_08794"
    INDEX 01 00:05:12
  TRACK 11 AUDIO
    TITLE "0:"
    INDEX 01 00:06:12
  TRACK 12 AUDIO
    TITLE "12:cjc026_08795"
    INDEX 01 00:06:37
  TRACK 13 AUDIO
    TITLE "0:"
    INDEX 01 00:07:27
  TRACK 14 AUDIO
    TITLE "10:cjc026_08796"
    INDEX 01 00:07:56
  TRACK 15 AUDIO
    TITLE "0:"
    INDEX 01 00:08:44
  TRACK 16 AUDIO
    TITLE "11:cjc026_08797"
    INDEX 01 00:08:72
  TRACK 17 AUDIO
    TITLE "0:"
    INDEX 01 00:09:69
  TRACK 18 AUDIO
    TITLE "12:cjc026_08798"
    INDEX 01 00:10:19
  TRACK 19 AUDIO
    TITLE "0:"
    INDEX 01 00:11:07
  TRACK 20 AUDIO
    TITLE "10:cjc026_08799"
    INDEX 01 00:11:35
  TRACK 21 AUDIO
    TITLE "0:"
    INDEX 01 00:12:22
  TRACK 22 AUDIO
    TITLE "11:cjc026_08800"
    INDEX 01 00:12:50
  TRACK 23 AUDIO
    TITLE "0:"
    INDEX 01 00:13:55
  TRACK 24 AUDIO
    TITLE "12:cjc026_08801"
    INDEX 01 00:14:07
  TRACK 25 AUDIO
    TITLE "0:"
    INDEX 01 00:14:68
  TRACK 26 AUDIO
    TITLE "10:cjc026_08802"
    INDEX 01 00:15:21
  TRACK 27 AUDIO
    TITLE "0:"
    INDEX 01 00:16:06
  TRACK 28 AUDIO
    TITLE "11:cjc026_08803"
    INDEX 01 00:16:32
  TRACK 29 AUDIO
    TITLE "0:"
    INDEX 01 00:17:39
  TRACK 30 AUDIO
    TITLE "12:cjc026_08804"
    INDEX 01 00:17:67
  TRACK 31 AUDIO
    TITLE "0:"
    INDEX 01 00:18:52
  TRACK 32 AUDIO
    TITLE "10:cjc026_08805"
    INDEX 01 00:19:05
  TRACK 33 AUDIO
    TITLE "0:"
    INDEX 01 00:20:10
  TRACK 34 AUDIO
    TITLE "11:cjc026_08806"
    INDEX 01 00:20:37
  TRACK 35 AUDIO
    TITLE "0:"
    INDEX 01 00:21:57
  TRACK 36 AUDIO
    TITLE "12:cjc026_08807"
    INDEX 01 00:22:07
  TRACK 37 AUDIO
    TITLE "0:"
    INDEX 01 00:23:14
  TRACK 38 AUDIO
    TITLE "10:cjc026_08808"
    INDEX 01 00:23:42
  TRACK 39 AUDIO
    TITLE "0:"
    INDEX 01 00:24:43
  TRACK 40 AUDIO
    TITLE "11:cjc026_08809"
    INDEX 01 00:24:72
  TRACK 41 AUDIO
    TITLE "0:"
    INDEX 01 00:26:20
  TRACK 42 AUDIO
    TITLE "12:cjc026_08810"
    INDEX 01 00:26:46
  TRACK 43 AUDIO
    TITLE "0:"
    INDEX 01 00:27:47
  TRACK 44 AUDIO
    TITLE "10:cjc026_08811"
    INDEX 01 00:28:02
  TRACK 45 AUDIO
    TITLE "0:"
    INDEX 01 00:29:05
  TRACK 46 AUDIO
    TITLE "11:cjc026_08812"
    INDEX 01 00:29:34
  TRACK 47 AUDIO
    TITLE "0:"
    INDEX 01 00:30:55
  TRACK 48 AUDIO
    TITLE "12:cjc026_08813"
    INDEX 01 00:31:04
  TRACK 49 AUDIO
    TITLE "0:"
    INDEX 01 00:32:07
  TRACK 50 AUDIO
    TITLE "10:cjc026_08814"
    INDEX 01 00:32:37
  TRACK 51 AUDIO
    TITLE "0:"
    INDEX 01 00:33:36
  TRACK 52 AUDIO
    TITLE "11:cjc026_08815"
    INDEX 01 00:33:66
  TRACK 53 AUDIO
    TITLE "0:"
    INDEX 01 00:35:02
  TRACK 54 AUDIO
    TITLE "12:cjc026_08816"
    INDEX 01 00:35:29
  TRACK 55 AUDIO
    TITLE "0:"
    INDEX 01 00:36:29
  TRACK 56 AUDIO
    TITLE "10:cjc026_08817"
    INDEX 01 00:36:58
  TRACK 57 AUDIO
    TITLE "0:"
    INDEX 01 00:37:48
  TRACK 58 AUDIO
    TITLE "11:cjc026_08818"
    INDEX 01 00:37:73
  TRACK 59 AUDIO
    TITLE "0:"
    INDEX 01 00:38:71
  TRACK 60 AUDIO
    TITLE "12:cjc026_08819"
    INDEX 01 00:39:23
  TRACK 61 AUDIO
    TITLE "0:"
    INDEX 01 00:40:13
  TRACK 62 AUDIO
    TITLE "10:cjc026_08820"
    INDEX 01 00:40:38
  TRACK 63 AUDIO
    TITLE "0:"
    INDEX 01 00:41:24
  TRACK 64 AUDIO
    TITLE "11:cjc026_08821"
    INDEX 01 00:41:51
  TRACK 65 AUDIO
    TITLE "0:"
    INDEX 01 00:42:68
  TRACK 66 AUDIO
    TITLE "12:cjc026_08822"
    INDEX 01 00:43:19
  TRACK 67 AUDIO
    TITLE "0:"
    INDEX 01 00:44:07
  TRACK 68 AUDIO
    TITLE "10:cjc026_08823"
    INDEX 01 00:44:32
  TRACK 69 AUDIO
    TITLE "0:"
    INDEX 01 00:45:30
  TRACK 70 AUDIO
    TITLE "11:cjc026_08824"
    INDEX 01 00:45:55
  TRACK 71 AUDIO
    TITLE "0:"
    INDEX 01 00:46:72
  TRACK 72 AUDIO
    TITLE "12:cjc026_08825"
    INDEX 01 00:47:25
  TRACK 73 AUDIO
    TITLE "0:"
    INDEX 01 00:48:22
